# xmcd
#
# Track frame offsets:
#	150
#	10655
#	17607
#	33691
#	44331
#	68333
#	76547
#	89907
#	109725
#	126662
#	140149
#	148426
#	170101
#	180816
#	193769
#	206282
#	215960
#	228195
#	252685
#	261959
#
# Disc length: 3600 seconds
#
# Revision: 1
# Processed by: cddbd v1.5.2PL0 Copyright (c) Steve Scherf et al.
# Submitted via: EZCDAudioConverter 7.0.6.1
#
DISCID=2d0e0e14
DTITLE=Just A Bad Dream 2/3
DYEAR=2018
DGENRE=
TTITLE0=Sexton Ming - You Can't Polish A Turd
TTITLE1=The Escalators - Munsters Theme
TTITLE2=The Jesus and Mary Chain - Vegetable Man
TTITLE3=The Tall Boys - Ride This Torpedo
TTITLE4=The Thanes - Don't Let Her Dark Your Door
TTITLE5=Bananamen - The Crusher
TTITLE6=The X-Men - Talk
TTITLE7=Emptifish - I Want That Girl
TTITLE8=The Morticians - I Don't Care
TTITLE9=The Meteors - Swamp Thing
TTITLE10=Jasmine Minks - What's Happening
TTITLE11=Nutmeg - And In England They're Going Mental
TTITLE12=Prime Movers - Livin' In My Own Nightmare
TTITLE13=The Mindreaders - Fever In My Pocket
TTITLE14=King Kurt - Nervous Breakdown
TTITLE15=The Stayrcase - I Know You Lied
TTITLE16=The Daggermen - One More Letter
TTITLE17=The Psylons - Waiting Nation
TTITLE18=The Wigs - The Dead
TTITLE19=Thee Headcoats - Young Blood [Live]
EXTD=
EXTT0=
EXTT1=
EXTT2=
EXTT3=
EXTT4=
EXTT5=
EXTT6=
EXTT7=
EXTT8=
EXTT9=
EXTT10=
EXTT11=
EXTT12=
EXTT13=
EXTT14=
EXTT15=
EXTT16=
EXTT17=
EXTT18=
EXTT19=
PLAYORDER=
